<?xml version="1.0" standalone="no"?>
<!DOCTYPE svg PUBLIC "-//W3C//DTD SVG 20010904//EN"
 "http://www.w3.org/TR/2001/REC-SVG-20010904/DTD/svg10.dtd">
<svg version="1.0" xmlns="http://www.w3.org/2000/svg"
 width="11.000000pt" height="12.000000pt" viewBox="0 0 11.000000 12.000000"
 preserveAspectRatio="xMidYMid meet">

<g transform="translate(0.000000,12.000000) scale(0.100000,-0.100000)"
fill="#000000" stroke="none">
<path d="M13 94 c-2 -6 -3 -27 -1 -46 3 -31 5 -33 43 -34 l40 -1 -37 4 c-34 4
-38 7 -38 34 0 27 2 29 41 29 26 0 39 4 37 11 -5 16 -79 19 -85 3z"/>
<path d="M60 50 c0 -5 5 -10 10 -10 6 0 10 5 10 10 0 6 -4 10 -10 10 -5 0 -10
-4 -10 -10z"/>
</g>
</svg>
